<svg viewBox="0 0 32 32" fill="none" xmlns="http://www.w3.org/2000/svg">
  <!-- Background Circle -->
  <circle cx="16" cy="16" r="16" fill="url(#gradient)" />
  
  <!-- Hard Hat -->
  <path d="M16 4C12.5 4 10 6.5 10 10V12C10 12.5 10.5 13 11 13H21C21.5 13 22 12.5 22 12V10C22 6.5 19.5 4 16 4Z" fill="white"/>
  
  <!-- Hat Brim -->
  <path d="M8 13C8 12.5 8.5 12 9 12H23C23.5 12 24 12.5 24 13C24 13.5 23.5 14 23 14H9C8.5 14 8 13.5 8 13Z" fill="white"/>
  
  <!-- Tools - Hammer and Wrench -->
  <path d="M12 16L14 18L18 14L16 12L12 16Z" fill="white" opacity="0.8"/>
  <path d="M18 18L20 16L24 20L22 22L18 18Z" fill="white" opacity="0.8"/>
  
  <!-- Building/Construction Elements -->
  <rect x="10" y="20" width="12" height="4" fill="white" opacity="0.6"/>
  <rect x="12" y="18" width="2" height="2" fill="white" opacity="0.7"/>
  <rect x="18" y="18" width="2" height="2" fill="white" opacity="0.7"/>
  
  <!-- Accent Dot -->
  <circle cx="22" cy="10" r="2" fill="#fb923c" stroke="white" stroke-width="1"/>
  
  <!-- Gradient Definition -->
  <defs>
    <linearGradient id="gradient" x1="0%" y1="0%" x2="100%" y2="100%">
      <stop offset="0%" style="stop-color:#3b82f6;stop-opacity:1" />
      <stop offset="100%" style="stop-color:#1d4ed8;stop-opacity:1" />
    </linearGradient>
  </defs>
</svg>
